<svg xmlns="http://www.w3.org/2000/svg" width="256" height="256"><path fill-opacity=".235" d="M0 128.004v128.004l128.25-.254 128.25-.254.254-127.75L257.008 0H0v128.004m.485.496c0 70.4.119 99.053.265 63.672.146-35.38.146-92.98 0-128C.604 29.153.485 58.1.485 128.5" fill="#1976D2" fill-rule="evenodd"/><path fill-opacity=".293" d="M0 128.004v128.004l128.25-.254 128.25-.254.254-127.75L257.008 0H0v128.004m.485.496c0 70.4.119 99.053.265 63.672.146-35.38.146-92.98 0-128C.604 29.153.485 58.1.485 128.5m115.328-60.817c.721.289 1.584.253 1.916-.079.332-.332-.258-.568-1.312-.525-1.165.048-1.402.285-.604.604m-13.659 11.605-5.345 1.025.603 5.094c.587 4.945-.878 9.784-2.071 6.843-.854-2.105-2.037-1.406-3.384 2-.707 1.787-2.769 5.364-4.582 7.948l-3.297 4.698 7.211 5.302c3.966 2.916 8.336 5.354 9.711 5.417 1.375.064 3.452.176 4.615.25 1.163.074 3.31 1.075 4.771 2.224 1.921 1.511 4.263 2.133 8.474 2.25 4.608.127 6.869.814 10.859 3.295 3.358 2.088 5.497 2.844 6.41 2.265 2.634-1.669 9.129-.938 13.283 1.494 3.843 2.25 4.765 2.362 15.38 1.857 13.553-.645 13.613-.701 12.223-11.405-.524-4.04-.967-8.09-.984-9.001-.021-1.126-.636-1.499-1.918-1.163-3.057.799-3.263-1.181-.541-5.192 1.398-2.061 2.306-4.365 2.016-5.121-.796-2.074-8.621-6.714-14.949-8.865l-5.62-1.911-4.76 2.286c-2.617 1.257-7.97 4.274-11.895 6.704-3.925 2.43-7.662 4.418-8.305 4.418-1.255 0-4.699-7.236-7.495-15.749-.948-2.888-2.688-5.925-3.867-6.75-2.408-1.688-8.449-1.765-16.543-.213m-6.091 18.414c-1.217 3.366-1.167 3.825.549 5.044 4.269 3.033 14.51 9.254 15.235 9.254.428 0 2.007-1.282 3.508-2.849l2.73-2.849-3.293-2.482C110.917 100.9 99.223 94 98.147 94c-.41 0-1.348 1.666-2.084 3.702m-17.38 10.948c-.998.998-.806 11.607.24 13.26.589.929 1.023-.942 1.277-5.5.373-6.703-.109-9.168-1.517-7.76m74.817 1.025c-2.2.186-5.504.588-7.343.894-3.456.575-3.643 1.396-1.554 6.838.397 1.035.068 1.593-.94 1.593-2.052 0-7.371 4.621-6.419 5.575.409.411 1.569-.001 2.579-.914 3.152-2.854 7.769-1.865 9.229 1.975.494 1.3 1.36 2.364 1.923 2.364 1.792 0 1.107-2.793-1.396-5.694l-2.42-2.806 9.17-1 9.171-1 .307-4.25.308-4.25-4.308.168c-2.369.093-6.107.32-8.307.507m-51.639 4.239c-3.211 2.603-1.723 3.708 2.017 1.499 3.748-2.214 7.732-.817 8.703 3.053.762 3.036 2.419 3.371 2.419.489 0-3.047-4.407-6.955-7.844-6.955-1.614 0-3.997.861-5.295 1.914M87 119.293v5.294l4 1.067 4 1.068v-3.165c0-2.267-.935-4.071-3.298-6.361-1.813-1.758-3.613-3.196-4-3.196-.386 0-.702 2.382-.702 5.293m12.25 1.241c-1.658 1.164-2.25 2.574-2.25 5.358 0 3.723.081 3.801 5.436 5.292 2.99.832 5.848 1.244 6.35.915 1.458-.955 3.214-4.786 3.214-7.01 0-4.106-8.873-7.275-12.75-4.555m-42.241 2.955c-.781.941-.995 2.772-.582 4.975.523 2.785.244 3.838-1.386 5.233-2.272 1.945-2.718 6.501-.791 8.087 1.853 1.524 20.459 6.397 23.032 6.031 3.855-.548 2.463-3.034-2.509-4.484-2.818-.822-5.187-2.236-5.864-3.501-1.539-2.875-.6-11.409 1.512-13.743 1.653-1.826 1.532-1.931-3.403-2.99-6.781-1.454-8.534-1.385-10.009.392m46.358 2.296c.355.574.08 1.272-.611 1.551-.691.278-.356.549.744.6 1.679.079 1.759.258.5 1.11-1.097.742-.695.838 1.5.355 3.747-.823 5.608-2.335 2.034-1.652-1.772.339-2.523.097-2.326-.749.161-.688-.333-1.477-1.097-1.755-.796-.289-1.114-.058-.744.54m-30.56.893c-2.243.592-4.134 6.555-3.293 10.385.787 3.583 3.001 4.668 12.659 6.206 5.843.93 7.009.842 9.375-.709 2.536-1.661 2.664-2.098 2.078-7.082-.444-3.783-.27-5.43.606-5.722.677-.226-.978-1.163-3.679-2.083-4.527-1.543-13.714-2.058-17.746-.995m42.257.572-3.414 4.205-2.4 2.955 2.125 3.283c2.628 4.06 4.421 4.277 3.862.468-.527-3.59 2.161-6.509 5.421-5.886 1.528.292 2.342-.025 2.342-.914 0-.748.481-1.361 1.07-1.361.588 0 .925 1.012.75 2.25-.262 1.844-.952 2.25-3.82 2.25-3.078 0-3.538.333-3.818 2.761-.273 2.381.106 2.847 2.75 3.375 1.688.338 3.068 1.06 3.068 1.606 0 .545-1.125.776-2.5.513-3.417-.653-3.2 1.4.37 3.509 4.053 2.395 5.711 6.749 3.963 10.411-2.646 5.546-10.164 3.094-8.321-2.713.343-1.079.18-1.962-.361-1.962-.542 0-1.174.563-1.405 1.25-.336.997-.73.995-1.949-.011-1.247-1.029-2.311-.911-5.77.638l-4.242 1.899 5.807 2.173c9.695 3.627 18.453 5.309 27.908 5.359 16.696.089 26.603-3.87 35.342-14.124 4.4-5.163 4.45-5.295 1.734-4.614-2.424.609-2.722.45-2.234-1.184.31-1.037.853-3.105 1.208-4.594l.646-2.708-8.848.562c-7.538.479-9.144.898-10.848 2.83-2.879 3.264-5.798 4.524-10.484 4.524-4.63 0-9.461-2.113-10.395-4.545-.341-.89-.621-2.862-.621-4.382 0-3.207-2.089-5.377-7.254-7.535-4.457-1.862-8.311-1.977-9.682-.288m20.136 2.95c-.66.66-1.2 2.884-1.2 4.943 0 4.756 2.757 6.857 9 6.857 5.749 0 9-2.161 9-5.984 0-4.313-4.02-7.016-10.435-7.016-2.841 0-5.705.54-6.365 1.2m45.015 8.05c-1.644 5.679-1.763 6.817-.55 5.25 3.388-4.376 5.658-12.5 3.492-12.5-.464 0-1.788 3.262-2.942 7.25m-84.576-1.87c.496 3.623.233 4.748-1.519 6.5C92.954 144.046 91.1 145 90 145c-3.286 0-2.411 3.583 1.459 5.975 5.374 3.321 9.679 3.621 15.002 1.044 3.503-1.696 4.913-1.954 5.955-1.088 1.086.901 1.593.481 2.475-2.048 1.563-4.483 1.396-5.657-.908-6.388-1.109-.352-2.893-2.358-3.964-4.457-2.102-4.122-5.8-6.038-11.649-6.038h-3.332l.601 4.38m44.911.542c.522.507 2.75 1.199 4.95 1.538l4 .615-4-1.522c-4.634-1.764-6.341-1.982-4.95-.631m1.263 2.761c.721.289 1.584.253 1.916-.079.332-.332-.258-.568-1.312-.525-1.165.048-1.402.285-.604.604m-24.2 7.133c-.388.629-.157 2.973.513 5.21.971 3.242 1.638 4.008 3.286 3.771 1.137-.163 2.211-1.048 2.386-1.967.416-2.187-5.218-8.578-6.185-7.014m-50.511 7.642c-2.573 6.875-3.453 11.86-2.581 14.609.642 2.021.934 1.778 2.989-2.486 2.699-5.6 5.875-9.197 9.99-11.316 1.65-.849 3.331-2.044 3.735-2.655 1.705-2.577.559-3.239-5.71-3.298l-6.475-.061-1.948 5.207m11.398 1.709c-5.528 3.057-11.5 12.018-11.5 17.254 0 2.682.302 2.786 11.918 4.086 2.98.333 7.004 1.269 8.943 2.08 3.134 1.309 3.621 1.302 4.382-.057.471-.842 1.438-1.53 2.148-1.53 1.407 0 4.51-9.457 4.879-14.867l.23-3.367-8-2.359c-9.067-2.674-10.21-2.783-13-1.24m22.176 8.18c-.328 2.391-1.321 6.483-2.208 9.095-.886 2.611-1.467 4.868-1.29 5.016.177.148 3.379.57 7.114.937l6.793.669-1.578-3.05c-1.444-2.792-1.44-3.103.047-3.673 1.384-.531 1.256-.936-.86-2.732-1.366-1.16-2.765-3.347-3.108-4.859-.562-2.477-.349-2.758 2.145-2.831l2.769-.081-3-1.374c-5.13-2.349-6.167-1.911-6.824 2.883m56.037-2.172c-2.932 1.069-3 2.503-.355 7.468.628 1.178 2.69 5.114 4.582 8.745 3.413 6.551 3.457 6.589 5.5 4.741 1.133-1.024 4.197-2.658 6.81-3.631 2.625-.978 4.75-2.409 4.75-3.199 0-2.02-9.444-10.974-14.056-13.328-2.126-1.084-3.995-1.935-4.154-1.892-.16.043-1.544.536-3.077 1.096m-43.047 1.464c1.119 3.025 2.343 3.335 12.834 3.242l10-.089-10-1.785c-5.5-.981-10.793-2.11-11.761-2.507-1.415-.58-1.626-.356-1.073 1.139M107 165.434c0 1.773 3.45 5.566 5.063 5.566.598 0 .926-1.424.75-3.25-.261-2.708-.772-3.303-3.063-3.566-1.964-.226-2.75.131-2.75 1.25m41-.707c-.825.313-2.574 1.627-3.886 2.921-1.313 1.293-2.888 2.328-3.5 2.3-.613-.029-.102-.759 1.136-1.622 3.088-2.154 2.819-3.063-.75-2.539-2.133.313-3 .992-3 2.351 0 1.324.922 2.096 3 2.512 3.639.728 3.664 1.107.486 7.378-2.473 4.879-2.49 5.079-1.06 11.937 2.032 9.749 5.049 16.288 7.302 15.829 1.332-.271 1.745-1.266 1.664-4.009-.105-3.561.031-3.699 5.783-5.85 3.239-1.212 6.111-1.983 6.38-1.713.269.269-1.658 1.288-4.283 2.265-5.152 1.917-6.977 3.142-6.055 4.064.954.953 10.623-4.384 11.747-6.484 1.492-2.787 1.275-7.704-.49-11.117-1.467-2.837-3.474-3.986-3.474-1.989 0 1.905-4.436 5.039-7.133 5.039-4.048 0-8.2-3.975-8.2-7.85 0-4.355 3.704-8.15 7.955-8.15 3.203 0 3.251-.065 2.228-3-1.018-2.921-2.561-3.52-5.85-2.273m-25.75 8.016c-3.987.189-7.25.775-7.25 1.301 0 1.064 13.984 1.309 18.875.331 4.358-.872 3.914-2.417-.625-2.176-2.062.109-7.013.354-11 .544m15.764 1.007c.007.963.297 2.811.645 4.108.612 2.287.672 2.261 1.986-.865 1.807-4.297 1.717-4.993-.645-4.993-1.243 0-1.995.662-1.986 1.75m11.986.309c0 .582-.45.781-1 .441s-1-.382-1-.094c0 .288.954 1.034 2.121 1.659 1.49.797 1.918.808 1.441.035-.398-.644.07-1.106 1.129-1.115 1.534-.013 1.581-.163.309-.985-1.965-1.27-3-1.25-3 .059m-39.965.691c.02.412.679 1.875 1.465 3.25l1.429 2.5.036-3.25c.024-2.238-.432-3.25-1.465-3.25-.825 0-1.484.338-1.465.75m43.837 2.531-.363 3.469c-.269 2.561.704 2.903 2.41.847.894-1.077.865-1.523-.127-1.924-1.045-.421-1.036-.7.042-1.458 1.083-.76 1.036-1.051-.25-1.544-.891-.342-1.64-.075-1.712.61m-6.979 1.387c-1.011 1.245-1.038 1.502-.099.938.721-.434 2.049-.187 3 .558 1.567 1.227 1.587 1.174.239-.664-.807-1.1-1.53-2.123-1.608-2.274-.077-.151-.767.498-1.532 1.442m-53.464 1.236c-.857.858-.402 3.096.63 3.096.582 0 .771-.467.418-1.037-.406-.657.672-.948 2.941-.795 2.142.144 3.582.762 3.582 1.536 0 .713.45 1.296 1 1.296s1-.855 1-1.899c0-1.536-.875-1.969-4.571-2.263-2.513-.2-4.763-.17-5 .066m77.581 2.346c-4.116 2.098-4.487 2.625-5.495 7.82-1.057 5.444-1.032 5.56 1.104 5.152 1.317-.252 3.008.405 4.257 1.654l2.071 2.071 2.526-4.311c1.39-2.372 2.527-5.228 2.527-6.349 0-3.18-1.179-8.287-1.913-8.287-.365 0-2.649 1.012-5.077 2.25m-66.854-.761c.269.269 2.031.689 3.916.932 4.685.607 4.687.608 2.428 1.579-1.908.82-1.897.863.25.93 2.58.08 3.078-2.398.668-3.323-1.882-.722-7.965-.821-7.262-.118M148 182c.825.533 1.95.969 2.5.969s.325-.436-.5-.969c-.825-.533-1.95-.969-2.5-.969s-.325.436.5.969m-54.378 2.803c-.819 1.325-4.606 17.284-4.615 19.447-.005 1.202.776 1.75 2.493 1.75 1.833 0 2.5-.533 2.5-2 0-1.778.667-2 6-2 5.111 0 6 .267 6 1.8 0 .99-.532 2.332-1.183 2.983-1.377 1.377-1.126 1.72 1.953 2.667 1.925.592 2.494.163 3.74-2.82.808-1.934 1.761-7.303 2.116-11.931l.647-8.414-7.386-.707c-4.063-.39-8.35-.94-9.528-1.224-1.177-.284-2.409-.082-2.737.449m13.742 4.69c-.346.903-.15 2.121.436 2.707 1.524 1.524 4.41.131 4.012-1.935-.443-2.302-3.647-2.858-4.448-.772m1.189.422a1.116 1.116 0 0 0 .362 1.532c.521.322 1.21.159 1.532-.362a1.116 1.116 0 0 0-.362-1.532 1.116 1.116 0 0 0-1.532.362m-1.475 6.491c-1.41 1.699-.66 3.594 1.422 3.594 2.165 0 2.884-2.044 1.282-3.646-1.272-1.272-1.61-1.266-2.704.052M107 198c0 .55.423 1 .941 1s1.219-.45 1.559-1c.34-.55-.084-1-.941-1s-1.559.45-1.559 1m49.962 2.25c-4.28 2.158-4.449 2.413-4.155 6.25.169 2.2.537 4.787.817 5.75.785 2.69 7.088 2.221 13.447-1 4.393-2.225 5.491-3.287 5.752-5.565.177-1.548-.396-3.91-1.273-5.25-2.115-3.228-8.396-3.307-14.588-.185m-61.785 4.428c.491 2.549 5.82 3.634 8.029 1.636 2.859-2.588 2.14-3.314-3.279-3.314-4.211 0-5.019.285-4.75 1.678m28.082 11.507c-2.032 2.032-2.247 2.053-4.694.449-2.54-1.664-2.565-1.653-2.574 1.093-.004 1.525-.292 5.136-.639 8.023-.569 4.741-.443 5.25 1.303 5.25 2.872 0 9.668-9.354 9.56-13.159-.114-4.006-.429-4.183-2.956-1.656m14.045 1.065c-.517.688-1.462 3.041-2.099 5.231-1.098 3.768-1.016 4.095 1.535 6.129 2.11 1.682 3.164 1.935 4.853 1.166l2.158-.984-2.079-6.396c-2.14-6.58-2.749-7.298-4.368-5.146" fill="#1976D2" fill-rule="evenodd"/><path fill-opacity=".434" d="M169.287 38.166c-1.216 5.588-2.599 10.546-3.073 11.02-.481.481-3.33-.232-6.457-1.615-12.236-5.411-24.61-6.985-36.534-4.647-6.11 1.198-8.025 2.095-10.639 4.983-1.042 1.151-2.699 2.093-3.682 2.093-.983 0-4.401 2.391-7.595 5.314s-7.27 5.903-9.057 6.622c-2.125.854-3.25 1.989-3.25 3.278 0 1.084-.875 3.083-1.944 4.442s-1.71 3.082-1.424 3.827c.286.745-.187 2.434-1.051 3.752-1.352 2.065-1.377 2.662-.179 4.301 1.234 1.687 1.064 2.38-1.505 6.114-3.423 4.975-3.492 5.35-.978 5.35 1.73 0 1.819.365.902 3.685-.559 2.026-1.65 4.65-2.423 5.83-.773 1.179-1.103 2.446-.735 2.815.369.368-.27.67-1.419.67-2.928 0-4.841 5.848-3.331 10.179.598 1.716 1.041 3.615.984 4.22-.056.606-.929-1.374-1.938-4.399-1.01-3.025-1.864-4.905-1.898-4.177-.043.942-1.571 1.277-5.311 1.164-2.888-.087-19.087-.119-36-.072L0 113v143.008l128.25-.254 128.25-.254.257-71.5.256-71.5h-67.167l.396 2.697c.218 1.484.028 2.47-.423 2.191-.45-.278-.819-2.623-.819-5.21 0-3.919.375-4.868 2.25-5.691 1.306-.573 2.372-2.036 2.542-3.487.276-2.37 1.352-5.358 3.325-9.236 1.493-2.936 1.013-4.816-2.459-9.63-4.441-6.159-4.654-6.889-5.685-19.516-1.042-12.76-2.76-21.197-4.635-22.752-1.027-.853-1.338-.72-1.338.571 0 2.792-1.676.893-6.146-6.963-2.338-4.111-4.5-7.472-4.803-7.47-.303.002-1.547 4.575-2.764 10.162m-54.19 20.753c-1.004.636-.649.845 1.249.735 1.459-.085 2.653-.491 2.653-.904.001-1.016-2.18-.921-3.902.169M115 67.713c0 .708.9 1.287 2 1.287s2-.647 2-1.438c0-.821-.857-1.373-2-1.287-1.1.083-2 .73-2 1.438m54 3.126c0 .462 1.109 1.345 2.464 1.963 2.984 1.359 4.466-.234 1.63-1.752-2.365-1.265-4.094-1.354-4.094-.211m-51.478 3.137c-1.901.682-1.888.758.336 1.948 2.645 1.415 3.714.892 2.484-1.216-.545-.934-1.54-1.192-2.82-.732M103.5 78.683l-7 1.46.339 5.929c.218 3.815-.049 5.928-.75 5.928C95.49 92 95 91.55 95 91c0-2.234-1.877-.79-2.925 2.25-.616 1.787-2.772 5.659-4.79 8.603-3.039 4.432-3.414 5.495-2.179 6.186.82.459 4.135 2.888 7.367 5.398 4.773 3.706 6.642 4.564 9.952 4.567 2.452.002 5.469.875 7.575 2.19 2.29 1.431 5.258 2.229 8.586 2.308 3.722.089 6.61.982 10.774 3.332 4.758 2.685 6.035 3.025 7.808 2.076 2.946-1.576 9.554-.491 13.136 2.157 2.809 2.076 3.719 2.18 14.491 1.649 7.9-.389 11.772-.98 12.382-1.891.848-1.266.236-15.366-.829-19.117-.352-1.238-1.102-1.603-2.429-1.182-2.708.859-2.447-1.284.725-5.952l2.643-3.891-3.393-2.808C169.847 93.526 159.101 89 155.198 89c-2.553 0-18.582 8.353-22.277 11.609-.868.765-2.064 1.391-2.656 1.391-1.036 0-6.425-11.827-7.746-17-.822-3.217-2.468-5.38-5.203-6.837-2.682-1.428-4.867-1.346-13.816.52m62.099.919c-.383.999.065 2.177 1.134 2.979 1.499 1.125 1.962 1.07 3.052-.366 1.046-1.378 1.046-1.765 0-2.088-.707-.217-1.795-.797-2.418-1.287-.728-.572-1.361-.299-1.768.762M123 80.918c0 2.221 1.28 3.912 2.583 3.412 2.223-.853 1.755-4.33-.583-4.33-1.1 0-2 .413-2 .918m21.166 4.933c-1.076.703-1.028.988.25 1.478.871.335 1.584 1.309 1.584 2.165 0 1.398.318 1.393 3.115-.053 1.724-.892 2.729-1.988 2.25-2.455-1.418-1.385-5.767-2.07-7.199-1.135m15.443.973c-.353.571-.154 1.339.441 1.707 1.486.918 2.012.188 1.021-1.417-.532-.859-1.047-.962-1.462-.29M126 89.953c0 .524.521 2.096 1.157 3.492.872 1.914 1.474 2.276 2.444 1.471.983-.815 1.026-1.641.182-3.492-1.069-2.348-3.783-3.403-3.783-1.471m9.655 1.876C134.093 93.555 133.356 97 134.55 97c.302 0 1.874-.685 3.494-1.523 2.598-1.343 2.799-1.755 1.71-3.5-1.523-2.438-2.01-2.456-4.099-.148m-38.692 4.875a432.66 432.66 0 0 0-1.437 3.982c-.228.652 1.923 2.543 4.78 4.201 2.857 1.659 6.578 3.932 8.269 5.052l3.075 2.036 2.852-2.977c1.569-1.638 2.66-3.134 2.425-3.326-1.412-1.151-10.151-6.717-14.184-9.033l-4.757-2.732-1.023 2.797m-19.452 14.247c-.754 3.432.313 11.822 1.604 12.62.487.301.885-.992.885-2.872 0-1.881.286-5.508.636-8.059.521-3.805.356-4.64-.921-4.64-.91 0-1.825 1.225-2.204 2.951m68.659-.222c-2.486.306-3.182.796-2.746 1.933.321.838.858 2.613 1.192 3.943.604 2.409.65 2.417 10.246 1.77 5.301-.358 9.77-.758 9.931-.889.161-.131.557-1.869.881-3.862l.588-3.624-8.381.16c-4.61.088-9.88.344-11.711.569m-58.993 1.549c-1.583 12.382-1.581 12.406 1.461 13.133 1.574.376 3.595.9 4.49 1.165 1.156.342 1.787-.324 2.178-2.297.451-2.283-.188-3.537-3.587-7.029-5.113-5.254-4.194-5.574 1.439-.5 2.289 2.063 3.963 3.141 3.718 2.397-.669-2.036-9.516-8.302-9.699-6.869m15.129 2.19c-1.543 1.358-2.299 2.483-1.678 2.5.62.018 1.687-.643 2.372-1.468 2.582-3.111 10-.642 10 3.329 0 .644.45 1.171 1 1.171 1.835 0 1.031-2.123-1.923-5.077-3.571-3.57-6.096-3.688-9.771-.455M.474 184.5c0 39.6.124 55.654.276 35.676.151-19.978.151-52.378 0-72C.598 128.554.474 144.9.474 184.5m185.778-64c.011 2.2.216 2.982.455 1.738.239-1.244.23-3.044-.02-4s-.446.062-.435 2.262m-86.946-.902c-.656.292-1.696 2.055-2.311 3.918-1.352 4.095-.08 7.136 3.253 7.778 1.257.242.436.494-1.859.57-3.879.128-4.091.291-3.754 2.886l.357 2.75-.96-2.94c-.652-1.995-.611-3.362.126-4.25 1.575-1.898-4.429-4.162-13.949-5.262-4.24-.49-10.553-1.552-14.03-2.36-6.173-1.435-6.383-1.417-8.964.804-2.318 1.993-2.503 2.579-1.508 4.764.971 2.131.76 3.017-1.463 6.142l-2.598 3.651 2.014 2.697c1.548 2.073 3.779 3.133 9.644 4.58 6.49 1.601 7.424 2.088 6.25 3.263-4.056 4.056-7.176 22.36-3.686 21.622.984-.209 1.198.392.76 2.135-.859 3.424.767 4.323 9.348 5.167 4.112.405 9.236 1.356 11.387 2.115 3.524 1.243 4.036 1.208 5.179-.355 1.121-1.532 1.21-1.425.763.913-.417 2.18-.09 2.728 1.844 3.095 2.157.41 2.174.458.213.583-1.846.117-2.44 1.4-4.344 9.386-1.214 5.088-2.437 10.092-2.718 11.122-.445 1.626-.042 1.817 3.078 1.452 1.975-.23 3.71-.075 3.856.344.146.42 1.841.891 3.766 1.048 1.925.156 3.747.615 4.05 1.019.302.404 1.93 1.011 3.618 1.349 2.771.554 3.175.304 4.182-2.584.613-1.758 1.375-6.19 1.694-9.848.319-3.659.785-7.664 1.037-8.902.396-1.947.017-2.27-2.812-2.4-3.025-.138-3.064-.181-.519-.566 1.908-.289 2.75-1.009 2.75-2.35 0-1.064-.398-1.934-.883-1.934-.486 0-1.134-.955-1.439-2.122l-.555-2.123 1.978 2.123c2.13 2.286 3.899 2.769 3.899 1.063 0-.582-.453-.779-1.007-.437-1.456.9-1.95-1.092-2.268-9.135-.311-7.862-1.807-10.795-4.991-9.784-1.404.445-1.765.274-1.234-.585.545-.882.1-1.03-1.625-.542-1.831.519-2.032.433-.875-.377.825-.578 1.05-1.05.5-1.05-1.733 0-3.251 1.397-3.768 3.469-.496 1.984-.501 1.984-.616-.019-.095-1.655-1.605-2.426-8.366-4.272-4.537-1.239-9.127-2.243-10.2-2.231-1.517.017-1.683-.245-.75-1.178.66-.66 1.2-2.01 1.2-3 0-1.486-.917-1.826-5.25-1.95l-5.25-.15 4.5-.605c4.849-.652 8.221.05 14.5 3.018 7.839 3.705 9.889 3.895 15.249 1.412 3.463-1.605 5.425-2.007 6.595-1.352 1.679.939 2.798-.678 3.785-5.473.34-1.648.54-1.669 2.371-.248 1.605 1.246 1.654 1.432.25.943-1.252-.436-1.759-.081-1.782 1.248-.049 2.87-2.471 5.485-4.395 4.747-1.903-.73-9.778 2.469-9.035 3.671.718 1.162 15.087 5.683 21.896 6.888 12.531 2.219 27.941.365 35.944-4.324 2.282-1.338 6.619-5.063 9.636-8.279 5.008-5.337 5.29-5.874 3.236-6.166-2.565-.364-2.596-.486-1.281-5.071l.969-3.378-9.632.707c-8.387.615-9.865 1.003-11.435 2.999-6.075 7.722-20.871 4.661-20.871-4.318 0-4.739-6.202-9.119-12.911-9.119-3.331 0-4.343.484-5.746 2.75-1.817 2.934-4.238 5.25-5.489 5.25-.42 0 .341-1.105 1.691-2.455 3.27-3.269 3.298-7.947.061-10.068-2.579-1.689-8.358-2.744-10.3-1.879m-43.901 2.652L53.5 124.5l2.5-1.989c1.375-1.094 2.688-2.107 2.917-2.25.229-.144-.039-.261-.595-.261-.557 0-1.869 1.013-2.917 2.25m8.345-1.588c.688.278 1.813.278 2.5 0 .688-.277.125-.504-1.25-.504s-1.937.227-1.25.504m75.111 1.305c-2.844 2.369-1.851 2.596 2.198.503 3.53-1.826 6.179-.802 8.275 3.198.792 1.512 1.648 2.171 2.025 1.559.36-.582-.514-2.446-1.941-4.142-3.07-3.649-7.018-4.067-10.557-1.118m-70.048-.284c.721.289 1.584.253 1.916-.079.332-.332-.258-.568-1.312-.525-1.165.048-1.402.285-.604.604m47.437 2.114c-3.689.561-2.547 1.836 1.247 1.393 4.595-.536 7.363.226 11.826 3.255 2.022 1.372 3.677 2.095 3.677 1.606 0-2.763-11.489-7.053-16.75-6.254m-63.171 2.786c.048 1.165.285 1.402.604.605.289-.722.253-1.585-.079-1.917-.332-.332-.568.258-.525 1.312m16.875.503c-1.587 2.966-.781 3.156 1.343.316.988-1.321 1.341-2.402.785-2.402-.556 0-1.514.939-2.128 2.086m67.063 2.2c-3.811 1.928-4.867 6.098-2.386 9.422 3.88 5.197 13.512 5.056 16.987-.248 2.164-3.303.946-6.132-3.651-8.477-4.478-2.285-7.44-2.473-10.95-.697M123 131.519c0 1.108-.656 1.355-2.419.912-1.889-.474-2.802-.023-4.166 2.058-2.402 3.666-.993 7.683 2.835 8.086 1.513.159 2.75-.131 2.75-.643 0-.513-.845-.932-1.878-.932-2.98 0-4.486-2.451-3.099-5.043.921-1.722 1.762-2.05 4.069-1.589 2.584.517 2.908.306 2.908-1.893 0-1.361-.225-2.475-.5-2.475s-.5.684-.5 1.519m-54.875 2.184c-.224 5.744 1.544 7.941 7.806 9.698 10.312 2.893 19.204 1.391 18.99-3.208-.064-1.368-.182-1.405-.615-.193-1.516 4.242-8.781 5.236-18.082 2.474-5.798-1.722-6.389-2.366-7.314-7.974-.613-3.72-.668-3.775-.785-.797m113.424-1.453-2.323 7.5c-1.064 3.438-1.579 6.25-1.143 6.25 1.273 0 7.188-12.753 6.461-13.93-.896-1.449-2.519-1.352-2.995.18m-24.299 1.473c-1.787.222-3.25.741-3.25 1.154 0 .848 10.435.289 16.5-.884 3.429-.663 3.001-.767-3-.723-3.85.027-8.463.232-10.25.453M111 139c.589 1.1 1.295 2 1.57 2 .275 0 .019-.9-.57-2s-1.295-2-1.57-2c-.275 0-.019.9.57 2m11.391 10.215c2.045 3.451 2.056 6.399.027 7.178-2.352.903-2.4.87-3.927-2.643-1.064-2.447-1.422-2.741-1.452-1.191-.021 1.132.587 2.914 1.351 3.96 1.194 1.633 1.76 1.734 4 .713 3.246-1.479 3.46-5.059.501-8.371l-2.108-2.361 1.608 2.715m-47.535 8.071C71.939 159.728 67 166.675 67 168.335c0 .581 1.274-.953 2.832-3.409 1.557-2.456 4.292-5.694 6.077-7.196 1.784-1.501 2.872-2.714 2.418-2.694-.455.02-2.017 1.032-3.471 2.25m81.331 4.963c-1.797.864-2.193 1.686-1.777 3.682l.537 2.569-1.171-2.349c-.979-1.967-1.715-2.26-4.518-1.806-1.841.299-4.115 1.366-5.053 2.371-.938 1.004-1.367 1.389-.955.855 1.437-1.86.732-2.702-2-2.387-2.21.254-2.816.893-3.085 3.259-.308 2.708-.193 2.828 1.442 1.5.977-.794 1.463-.919 1.079-.278-.384.64-.133 1.392.558 1.671.691.278.244.542-.994.585-1.89.066-2.25.639-2.25 3.579 0 2.627-.424 3.5-1.7 3.5-1.169 0-1.378.322-.667 1.033 1.422 1.422 4.159.198 4.92-2.201.346-1.09.847-1.766 1.112-1.5.265.265-.258 1.915-1.164 3.666-1.189 2.3-1.454 4.338-.953 7.343 1.214 7.291 4.368 16.273 6.34 18.058 1.819 1.646 1.984 1.622 3.484-.519.865-1.236 1.427-3.177 1.247-4.314-.18-1.136-.135-1.503.1-.816.538 1.573.156 1.63 5.904-.88 6.031-2.633 6.159-2.75 4.348-3.966-1.185-.796-1.084-.931.521-.696 1.505.221 2.149-.441 2.633-2.708.548-2.567.599-2.459.353.75-.264 3.437-.073 3.75 2.288 3.75 1.417 0 3.351.701 4.297 1.557 1.577 1.427 1.898 1.307 3.865-1.456 3.516-4.937 4.405-8.563 3.082-12.571-.641-1.942-1.693-3.544-2.338-3.56-.644-.017-.385-.489.578-1.05s1.75-1.671 1.75-2.467c0-3.479-14.061-15.551-17.921-15.385-.869.037-2.62.568-3.892 1.181m-42.838 1.217c.358.934.651 2.111.651 2.616 0 .505 5.202.918 11.559.918 7.451 0 11.339-.355 10.941-1-.34-.55-2.954-1.011-5.809-1.024-4.669-.022-10.834-1.029-16.092-2.629-1.482-.45-1.758-.203-1.25 1.119m-7.099.223c.963.252 2.537.252 3.5 0 .963-.251.175-.457-1.75-.457s-2.713.206-1.75.457m-.164 2.311c-.031.825.381 2.175.914 3 1.181 1.828 1.181.249 0-2.5-.567-1.319-.878-1.489-.914-.5m-7.007 1.583c.048 1.165.285 1.402.604.605.289-.722.253-1.585-.079-1.917-.332-.332-.568.258-.525 1.312m56 3c.048 1.165.285 1.402.604.605.289-.722.253-1.585-.079-1.917-.332-.332-.568.258-.525 1.312m-57 .085c-.043.643-.338 1.993-.655 3-.547 1.741-.518 1.744.571.044.631-.983.925-2.333.655-3-.355-.875-.514-.887-.571-.044m11.654.456c.679.684 1.486.991 1.793.683.308-.308-.247-.867-1.233-1.243-1.425-.542-1.54-.428-.56.56m36.341 1.287c-.801.965-.839 1.616-.123 2.059.577.356 1.083.509 1.126.339.448-1.813.688-3.809.457-3.809-.159 0-.816.635-1.46 1.411m-31.653.506c-1.665 1.647 1.015 2.112 10.748 1.866 8.283-.21 11.284-.631 11.615-1.631.362-1.09-1.692-1.281-10.747-1-6.157.192-11.384.536-11.616.765m-4.962 1.15c-1.026 1.66-.105 1.89 1.33.332.71-.769.849-1.399.309-1.399-.539 0-1.277.48-1.639 1.067m45.978-.296c.342.341 1.324.723 2.184.85.859.126 1.283-.05.942-.392-.342-.341-1.324-.723-2.184-.85-.859-.126-1.283.05-.942.392m-11.104 2.685c0 .801.383 1.22.85.931.467-.289.591-.944.274-1.456-.808-1.308-1.124-1.161-1.124.525m-48.577.784c-.509 1.292-.072 1.894 1.7 2.338 1.312.33 3.209.386 4.215.127 1.061-.275.495-.522-1.348-.589-2.165-.079-3.289-.673-3.529-1.866-.335-1.659-.389-1.659-1.038-.01m56.734.776c-.346.559-1.117.715-1.714.346-.647-.401-.797-.206-.371.483.985 1.595 2.27 1.445 2.957-.345.652-1.701.077-2.02-.872-.484m4.965 2.039c-.02 1.542.319 2.585.754 2.316.435-.269.791-1.137.791-1.93 0-2.709 1.695-1.445 3.535 2.637 1.792 3.974 1.879 4.026 3.402 2.041.86-1.12 3.138-2.712 5.063-3.538 1.925-.827 2.779-1.52 1.898-1.542-.881-.021-3.131 1.001-5 2.272l-3.398 2.311-2-3.473c-2.539-4.41-4.994-4.942-5.045-1.094m-50.705.607c.688.278 1.813.278 2.5 0 .688-.277.125-.504-1.25-.504s-1.937.227-1.25.504m38.188 1.222c1.367 2.555 1.972 2.71 1.636.42-.137-.932-.816-1.885-1.508-2.115-.981-.327-1.009.049-.128 1.695m-43.688 2.805c.963.252 2.537.252 3.5 0 .963-.251.175-.457-1.75-.457s-2.713.206-1.75.457m6.87 4.666c-.871 1.05-.815 1.653.235 2.525 1.05.871 1.653.815 2.525-.235.871-1.05.815-1.653-.235-2.525-1.05-.871-1.653-.815-2.525.235m.433.56a1.116 1.116 0 0 0 .362 1.532c.521.322 1.21.159 1.532-.362a1.116 1.116 0 0 0-.362-1.532 1.116 1.116 0 0 0-1.532.362M156 196c-.825.533-1.05.969-.5.969s1.675-.436 2.5-.969c.825-.533 1.05-.969.5-.969s-1.675.436-2.5.969m-49.5 1c-.826 1.336.284 3 2 3 1.999 0 2.921-1.981 1.554-3.337-.894-.887-1.014-.747-.506.587.474 1.245.171 1.75-1.048 1.75-1.113 0-1.512-.526-1.138-1.5.649-1.692.079-2.023-.862-.5m53 1.603c-5.181 1.871-9.371 5.127-7.901 6.14.604.416 1.092 2.196 1.083 3.954-.034 6.983 5.213 7.924 15.401 2.761 4.576-2.319 4.917-2.752 4.917-6.252 0-7.709-4.434-9.878-13.5-6.603m-65.501 4.147c0 .412 2.307.59 5.126.395 3.544-.245 5.392.063 5.986 1 .668 1.054.862.967.874-.395.013-1.474-.932-1.75-5.985-1.75-3.3 0-6 .338-6.001.75m28.817 13.4c-1.387 2.09-1.503 2.101-4.122.385-2.093-1.371-2.705-1.46-2.745-.4-.029.751-.387 4.374-.796 8.052-.66 5.933-.543 6.739 1.034 7.152 3.5.915 11.473-10.572 10.375-14.947-.743-2.962-1.89-3.037-3.746-.242m14.482.1c-.522.688-1.523 3.258-2.227 5.712-1.236 4.315-1.191 4.538 1.381 6.75 3.073 2.644 3.567 2.731 5.855 1.038 1.576-1.166 1.541-1.706-.513-8-2.261-6.931-2.858-7.662-4.496-5.5" fill="#1976D2" fill-rule="evenodd"/><path fill-opacity=".974" d="M169.863 37.253c-.901 4.536-2.132 9.497-2.736 11.025l-1.098 2.777-3.765-1.89c-9.55-4.794-17.451-6.668-27.764-6.582-11.548.095-17.725 1.551-21.16 4.986-1.337 1.337-3.097 2.431-3.911 2.431-.814 0-4.382 2.7-7.929 6-3.547 3.3-7.271 6-8.275 6C90.762 62 89 63.925 89 66.617c0 1.219-.531 2.393-1.18 2.61-.648.216-1.273 1.754-1.389 3.419-.115 1.664-.794 3.963-1.51 5.109-1.05 1.682-1.057 2.376-.035 3.607 1.044 1.258.815 2.292-1.311 5.919C80.558 92.429 80.462 93 82.608 93c1.242 0 1.464.627.975 2.75-1.061 4.596-4.006 10.226-5.358 10.239-1.967.017-3.438 5.07-2.769 9.511 1.061 7.046 2.367 7.163 1.805.162-.448-5.587-.269-6.722 1.147-7.265.923-.354 1.939-.384 2.257-.066.952.952-.76 15.729-1.751 15.116-.503-.311-.914-.088-.914.494S79.538 125 81.418 125c1.88 0 4.243.267 5.25.594 1.317.428 1.465.331.524-.344-1.893-1.36-1.226-11.865.727-11.444 1.063.23 1.147-.022.335-1-.596-.718-1.085-1.681-1.086-2.139-.001-.459-.336-1.134-.745-1.5-.409-.367-.407.008.003.833.411.825-.134.417-1.212-.908l-1.96-2.407 3.123-4.102c1.718-2.256 3.979-6.01 5.025-8.343C93.165 90.31 95 88.657 95 91c0 .55.495 1 1.101 1 .721 0 .98-2.145.75-6.211l-.351-6.212 9.245-1.451c13.5-2.119 13.614-2.037 19.839 14.374 1.461 3.85 3.164 7.539 3.786 8.199.867.92 3.074-.047 9.487-4.155 4.596-2.945 10.303-6.097 12.683-7.006 4.281-1.635 4.4-1.621 11.692 1.415 4.052 1.687 8.909 4.354 10.794 5.927l3.426 2.861-2.726 3.933c-3.417 4.931-3.509 6.561-.326 5.762 2.377-.597 2.408-.506 3.133 9.159.452 6.035.354 10.362-.257 11.333-1.301 2.067-23.551 2.841-26.134.909-1.49-1.114-1.488-1.059.016.59 1.437 1.575 3.169 1.794 12.974 1.638 12.433-.198 13.865.64 3.211 1.877l-6.843.795 6.817.132c6.57.126 6.794.213 6.171 2.381-1.804 6.277-1.819 6.07.398 5.49 3.218-.842 2.571.864-2.603 6.857-5.351 6.198-13.163 10.612-22.064 12.465-11.879 2.473-33.053-.339-43.666-5.8l-2.946-1.517 3.696-1.896c5.143-2.639 4.632-3.15-.763-.764-4.933 2.182-7.999 1.885-13.28-1.289-1.782-1.07-4.032-1.74-5-1.487-1.41.368-1.337.482.368.575 1.17.064 2.695.8 3.389 1.637.694.836 3.232 2.017 5.64 2.623 6.036 1.52 6.92 3.334 1.246 2.558L93.5 157.1l3.5 1.318c2.354.887 4.103 1.006 5.341.366 1.319-.682 3.211-.363 6.668 1.124 6.668 2.869 16.48 5.06 22.741 5.077 2.887.008 5.25.407 5.25.886 0 1.356-12.908 2.241-18.75 1.286l-5.25-.858-.118 3.1c-.066 1.706.002 3.551.149 4.101.147.55.472 2.206.721 3.679.302 1.782.922 2.5 1.851 2.143.768-.295 1.397-.038 1.397.571s-.866 1.107-1.925 1.107c-1.626 0-1.865.582-1.54 3.75.828 8.058-2.314 25.25-4.615 25.25-.417 0-3.607-.731-7.089-1.624-7.926-2.032-8.801-2.205-11.626-2.299-2.075-.07-2.243-.438-1.748-3.827l.548-3.75-1.253 3.5c-.914 2.556-1.926 3.584-3.752 3.81-3.683.457-7.257 3.331-9.332 7.505-1.777 3.573-1.777 3.799 0 7.435 2.738 5.604 8.615 8.076 24.581 10.339 16.608 2.353 15.564 2.41 15.449-.839-.211-5.958.376-12.819 1.208-14.133.737-1.163 1.234-1.132 3.123.191 2.089 1.463 2.366 1.426 3.947-.526 3.595-4.44 5.669 2.25 2.267 7.312-3.183 4.738-7.097 8.905-8.428 8.976-.723.039.475.726 2.663 1.527 3.162 1.157 4.559 1.216 6.806.285 2.123-.879 3.112-.886 3.972-.026 1.633 1.633 4.415 1.419 9.134-.705 2.261-1.017 7.035-2.788 10.61-3.936 23.419-7.519 31-12.416 31-20.025 0-3.177-.706-4.925-3.084-7.633l-3.084-3.512 2.145-3.013c1.18-1.657 2.336-4.705 2.569-6.772l.423-3.76-.99 3.854c-.802 3.117-2.752 6.768-5.631 10.539-.165.215-.936-.136-1.714-.782-.91-.755-.693.284.61 2.917 1.66 3.356 1.819 4.539.884 6.589-1.274 2.797-8.317 6.33-14.184 7.117-3.218.432-3.984.135-5.46-2.118-.963-1.469-1.51-3.701-1.246-5.083.259-1.355-.026-2.631-.633-2.835-.751-.253-.665-.906.267-2.035.867-1.05.966-1.663.269-1.663-.606 0-1.377 1.092-1.712 2.428-2.199 8.76-9.332-2.248-11.077-17.095-.481-4.085-1.052-5.311-2.73-5.856-1.845-.599-1.894-.75-.372-1.156.992-.265 1.75-1.417 1.75-2.66 0-2.172-.091-2.184-10.458-1.303-11.059.94-13.542.616-13.542-1.766 0-1.191 2.187-1.53 11.502-1.781 7.023-.19 11.665.078 11.921.689.231.55.455-.847.498-3.105l.079-4.106 6.25-.601c3.438-.33 8.438-1.355 11.112-2.276 4.53-1.562 5.097-1.563 8.336-.019 1.911.911 6.023 3.995 9.138 6.853 5.083 4.663 5.253 4.75 1.664.849-2.2-2.392-5.923-5.592-8.274-7.113l-4.274-2.764 4.521-2.65c7.246-4.246 19.62-17.756 21.836-23.841.388-1.064-.044-2.476-1.082-3.534-1.171-1.195-1.834-3.792-2.06-8.071-.31-5.86-.196-6.266 1.605-5.694 1.782.565 1.9.209 1.456-4.407-.382-3.973-.175-5.021.99-5.021 2.365 0 5.041-3.61 4.331-5.844-.346-1.093-.162-2.277.41-2.631.573-.354 1.041-1.461 1.041-2.462 0-1 .675-2.378 1.5-3.063 2.07-1.718 1.974-2.095-2.062-8.092-3.912-5.813-4.813-9.312-6.394-24.82C186.953 49.379 185.268 42 183.915 42c-.423 0-.926.788-1.119 1.75-.229 1.143-2.072-1.112-5.313-6.5-2.729-4.538-5.192-8.249-5.472-8.247-.281.002-1.248 3.715-2.148 8.25M114 59.361c0 .913.824 1.204 2.5.884 1.375-.263 2.5-.876 2.5-1.362 0-.485-1.125-.883-2.5-.883-1.442 0-2.5.576-2.5 1.361m.393 8.221c.334.87.607 1.728.607 1.906 0 .179.9.089 2-.198 2.954-.773 2.489-3.29-.607-3.29-1.966 0-2.458.389-2 1.582m54.615 3.168c.008 1.734 4.386 4.522 5.443 3.466 1.244-1.244.396-2.965-1.998-4.055-3.306-1.507-3.454-1.482-3.445.589M117 74.015c-1.333.876-1.333 1.094 0 1.97 1.517.996 4 1.366 4 .597 0-1.107-1.288-3.58-1.857-3.567-.354.009-1.318.459-2.143 1m48.147 5.711c-.797 1.488-.568 2.155 1.1 3.196 1.816 1.134 2.288 1.066 3.43-.494 1.545-2.114 1.7-3.428.405-3.428-.505 0-1.596-.26-2.424-.578-.884-.339-1.919.198-2.511 1.304m-41.963 2.015c.42 3.646 3.816 4.481 3.816.939 0-2.067-1.599-3.68-3.648-3.68-.267 0-.342 1.234-.168 2.741m20.467 4.014c-.256.415.306 1.709 1.25 2.875 1.683 2.078 1.783 2.085 5.158.327l3.441-1.793-2.815-1.082c-3.278-1.26-6.368-1.404-7.034-.327m15.881 1.193c-.323.524.35 1.453 1.495 2.067 3.103 1.66 4.14.748 1.44-1.266-1.338-.999-2.6-1.343-2.935-.801M126 90.809c0 .995.586 2.61 1.303 3.59 1.159 1.585 1.442 1.613 2.569.255.952-1.147.992-2.039.162-3.59-1.362-2.545-4.034-2.714-4.034-.255m9.714.543c-2.18 1.785-2.614 2.745-1.994 4.42l.792 2.14 3.103-1.965c2.447-1.55 3.003-2.493 2.628-4.456-.579-3.029-.983-3.041-4.529-.139m-38.739 6.213c-1.413 3.717-1.268 4.21 1.775 6.064 1.513.921 5.058 3.15 7.88 4.953l5.129 3.279 2.701-2.819 2.7-2.818-3.33-2.462C110.176 101.061 99.643 95 98.604 95c-.36 0-1.092 1.154-1.629 2.565m51.275 13.167c-4.499.405-4.981 1.215-3.321 5.581.914 2.405 1.079 2.436 10.25 1.936 5.127-.28 9.37-.563 9.429-.629.06-.066.369-1.807.688-3.87l.578-3.75-6.687.175c-3.678.096-8.599.347-10.937.557m-59.25.6c0 .275 1.8 1.926 4 3.668 2.2 1.742 4 2.943 4 2.668 0-.275-1.8-1.926-4-3.668-2.2-1.742-4-2.943-4-2.668m15.079 1.94c-1.332.675-2.635 1.903-2.896 2.728-.373 1.179-.052 1.125 1.5-.25 1.086-.963 3.107-1.75 4.491-1.75 2.561 0 5.826 2.706 5.826 4.829 0 .644.408 1.171.906 1.171 1.348 0 .141-3.654-1.756-5.317-2.569-2.252-5.428-2.752-8.071-1.411m-.17 5.813c2.425.476 5.487 1.878 6.805 3.116 1.7 1.597 2.213 1.773 1.764.603-.837-2.182-6.556-4.832-10.129-4.694-2.166.083-1.792.317 1.56.975m-6.876 1.376c-.667.803-1.465 3.391-1.773 5.75-.308 2.359-1.055 4.669-1.66 5.133-.66.507-.368.607.732.25 1.007-.327 2.335-.594 2.95-.594.779 0 .754-.364-.082-1.2-1.601-1.601-1.506-4.69.247-8.05 1.587-3.043 1.435-3.517-.414-1.289m41.828 1.506c-2.72 2.266-1.334 2.706 1.58.501 1.068-.807 2.677-1.468 3.576-1.468 1.724 0 5.351 3.466 6.277 6 .367 1.006.574.783.627-.677.095-2.613-4.274-6.323-7.445-6.323-1.24 0-3.317.885-4.615 1.967m-65.111 2.695c.688.278 1.813.278 2.5 0 .688-.277.125-.504-1.25-.504s-1.937.227-1.25.504m38.247 3.346c-.7 1.689-2.211 3.729-3.357 4.532-1.147.803-1.567 1.46-.934 1.46 1.622 0 4.291-2.861 5.406-5.794 1.381-3.634.382-3.812-1.115-.198M123 131.417c0 .779-.54 1.596-1.199 1.816-.751.25-.563.644.5 1.052 1.316.505 1.699.096 1.699-1.816 0-1.358-.225-2.469-.5-2.469s-.5.637-.5 1.417m58.519-.15c-1.849 5.634-4.378 15.207-4.092 15.494 1.092 1.091 7.573-10.994 7.573-14.122 0-1.834-2.947-2.996-3.481-1.372m-49.519.792c0 .582.45.781 1 .441s1-.816 1-1.059-.45-.441-1-.441-1 .477-1 1.059m-15.541 2.008c-1.026 1.66-.105 1.89 1.33.332.71-.769.849-1.399.309-1.399-.539 0-1.277.48-1.639 1.067m15.677 1.728c-.184 3.106 3.857 6.925 8.187 7.738 4.591.861 10.317-1.053 12.327-4.122.869-1.326 2.541-2.456 3.715-2.511 1.9-.088 1.86-.178-.365-.811-1.809-.515-2.675-.28-3.132.85-2.365 5.842-12.427 7.703-17.234 3.187-1.39-1.306-2.715-3.331-2.945-4.5-.394-2.013-.424-2.004-.553.169m-17.068 1.764c-.137 2.144 2.575 4.656 4.498 4.166 1.787-.456 1.775-.502-.163-.609-1.154-.064-2.586-1.128-3.183-2.366-.596-1.238-1.115-1.774-1.152-1.191m-22.196 5.191c-1.243 1.586-1.208 1.621.378.378.963-.755 1.75-1.543 1.75-1.75 0-.823-.821-.294-2.128 1.372m-38.431.695c1.068.855 2.643 1.519 3.5 1.476 1.347-.068 1.355-.155.059-.635-.825-.306-2.4-.97-3.5-1.476-1.968-.906-1.969-.895-.059.635m28.809 1.244c.963.252 2.537.252 3.5 0 .963-.251.175-.457-1.75-.457s-2.713.206-1.75.457m-22.437.994c.721.289 1.584.253 1.916-.079.332-.332-.258-.568-1.312-.525-1.165.048-1.402.285-.604.604m55.266.9c.048 1.165.285 1.402.604.605.289-.722.253-1.585-.079-1.917-.332-.332-.568.258-.525 1.312M68 148.059c0 .582.45.781 1 .441s1-.816 1-1.059-.45-.441-1-.441-1 .477-1 1.059m-1.376 3.48c-.965 2.514-.681 3.163.498 1.136.584-1.004.851-2.036.593-2.293-.257-.258-.749.263-1.091 1.157m15.179 1.211c-.531 1.94-.249 2.234 2.041 2.134 1.578-.069 1.971-.297.967-.561-.928-.246-1.846-1.206-2.04-2.134-.273-1.312-.489-1.187-.968.561m-17.179 3.789c-.343.893-.595 2.15-.561 2.793.035.642.495.09 1.022-1.227.527-1.318.779-2.574.56-2.793-.219-.219-.679.333-1.021 1.227m26.189.144c.721.289 1.584.253 1.916-.079.332-.332-.258-.568-1.312-.525-1.165.048-1.402.285-.604.604M63.158 163c0 1.375.227 1.938.504 1.25.278-.687.278-1.812 0-2.5-.277-.687-.504-.125-.504 1.25m-.152 6.191c-.003.93.444 1.969.994 2.309.55.34 1 1.465 1 2.5s.408 2.134.907 2.442c1.114.689.21-2.994-1.576-6.415-.912-1.748-1.321-2.006-1.325-.836m114.328 8.381c-.63 1.335-.786 2.649-.346 2.92.439.272 1.094-.681 1.454-2.117.864-3.442.322-3.834-1.108-.803m-108.065.121c.973.254 2.323.237 3-.037.677-.274-.119-.481-1.769-.461-1.65.02-2.204.244-1.231.498m7.481 1.013c1.237.238 3.263.238 4.5 0 1.237-.239.225-.434-2.25-.434s-3.487.195-2.25.434m11 2.267c2.693 1.222 4.256 2.588 4.265 3.728.013 1.445.192 1.521.91.387.56-.885.461-1.823-.266-2.512-1.467-1.392-6.373-3.583-7.956-3.554-.662.012.709.89 3.047 1.951m30.308.457c-.653.787-1.009 3.149-.791 5.25l.397 3.82.168-4.282c.134-3.42.621-4.464 2.418-5.187 1.523-.612 1.724-.925.622-.968-.895-.034-2.161.581-2.814 1.367M90.5 190c-.38 1.729-.482 3.351-.227 3.606.255.255.751-.974 1.102-2.731.834-4.168.026-4.976-.875-.875m34.5 1-5.5.674 5.191.163c2.855.09 5.469-.287 5.809-.837.34-.55.479-.927.309-.837-.17.09-2.784.466-5.809.837m36.481 3.862c.459.806.213 1.718-.603 2.234-.906.574-.97.879-.187.889 1.872.024 2.664-2.04 1.275-3.322-.974-.9-1.084-.855-.485.199m-72.402 1.721c.048 1.165.285 1.402.604.605.289-.722.253-1.585-.079-1.917-.332-.332-.568.258-.525 1.312m48.841 19.074c-.857 1.013-2.316 3.85-3.242 6.304l-1.683 4.46 2.753 2.254c2.986 2.445 4.933 2.813 7.223 1.364 1.268-.802 1.128-1.987-1.011-8.578-2.321-7.154-2.582-7.529-4.04-5.804" fill="#1976D2" fill-rule="evenodd"/></svg>